<?xml version="1.0" standalone="no"?>
<!DOCTYPE svg PUBLIC "-//W3C//DTD SVG 20010904//EN"
 "http://www.w3.org/TR/2001/REC-SVG-20010904/DTD/svg10.dtd">
<svg version="1.0" xmlns="http://www.w3.org/2000/svg"
 width="616.000000pt" height="616.000000pt" viewBox="0 0 616.000000 616.000000"
 preserveAspectRatio="xMidYMid meet">
<metadata>
Created by potrace 1.11, written by Peter Selinger 2001-2013
</metadata>
<g transform="translate(0.000000,616.000000) scale(0.100000,-0.100000)"
fill="#000000" stroke="none">
<path d="M3749 5627 c-41 -66 -58 -103 -85 -184 -32 -97 -66 -253 -60 -270 3
-7 2 -13 -2 -13 -4 0 -8 -8 -8 -17 0 -10 -4 -52 -8 -93 -11 -118 -7 -282 9
-365 21 -115 26 -124 93 -172 86 -61 262 -237 262 -261 0 -5 9 -17 20 -27 11
-10 20 -22 20 -26 0 -5 14 -31 30 -59 31 -53 76 -177 67 -186 -3 -3 -11 7 -19
23 -47 93 -111 167 -229 265 -71 59 -292 208 -309 208 -5 0 -10 5 -10 10 0 6
-6 10 -13 10 -7 0 -23 9 -35 20 -12 11 -24 20 -27 20 -3 0 -31 16 -61 35 -30
19 -58 35 -63 35 -5 0 -11 3 -13 8 -1 4 -28 23 -58 42 -144 91 -343 262 -390
335 -10 17 -28 40 -40 53 -11 12 -17 22 -13 22 4 0 3 4 -2 8 -6 4 -26 37 -45
74 -33 65 -40 71 -47 45 -28 -108 -38 -311 -19 -375 3 -9 7 -28 10 -42 8 -51
31 -116 58 -170 15 -30 28 -56 28 -57 0 -1 -11 2 -25 7 -14 5 -25 8 -25 6 0
-2 -21 2 -46 10 -54 16 -198 40 -299 49 -110 10 -298 14 -289 6 5 -4 34 -25
64 -47 183 -130 345 -351 335 -456 -9 -92 -64 -132 -430 -317 -121 -61 -251
-129 -290 -151 -38 -23 -78 -44 -87 -47 -10 -3 -18 -9 -18 -14 0 -5 -7 -9 -15
-9 -8 0 -15 -4 -15 -10 0 -5 -5 -10 -10 -10 -12 0 -123 -80 -128 -92 -2 -4 -8
-8 -14 -8 -11 0 -37 -30 -38 -43 0 -5 6 -5 13 0 6 4 21 8 32 9 11 1 52 6 90
10 78 9 249 10 310 1 192 -28 305 -113 344 -260 10 -38 8 -188 -3 -205 -3 -5
-8 -26 -10 -45 -3 -20 -9 -53 -15 -74 -6 -21 -12 -49 -15 -63 -3 -14 -12 -53
-19 -87 -14 -60 -14 -62 4 -52 11 5 19 13 19 17 0 9 144 118 235 179 171 114
386 228 555 294 118 46 268 87 293 81 5 -2 6 1 3 6 -12 19 -291 81 -383 85
-27 1 -28 6 -5 32 53 62 178 146 297 200 44 20 89 40 100 45 35 16 191 57 285
75 145 28 522 25 553 -4 4 -5 -18 -9 -50 -10 -67 -3 -99 -6 -168 -16 -27 -4
-59 -9 -70 -10 -127 -18 -412 -117 -502 -175 -30 -19 -29 -40 0 -40 19 0 120
-26 287 -75 47 -14 90 -31 90 -35 0 -3 -24 -16 -52 -30 -201 -94 -426 -318
-513 -509 -19 -41 -20 -57 -2 -44 17 14 136 61 172 68 93 18 183 22 273 12 59
-7 189 -44 211 -61 15 -12 49 -32 71 -42 30 -15 118 -115 139 -159 92 -195 43
-446 -119 -611 -29 -30 -57 -54 -62 -54 -4 0 -8 -5 -8 -11 0 -15 205 -5 278
14 29 8 55 10 58 6 9 -15 -67 -122 -136 -191 -37 -37 -89 -79 -115 -93 -26
-14 -42 -25 -34 -26 48 -4 145 7 204 23 22 5 50 12 63 14 36 7 149 51 215 85
76 39 161 96 214 147 48 46 125 151 118 163 -3 4 -20 3 -38 -1 -39 -11 -132
-6 -168 8 -15 6 -37 25 -49 42 -19 27 -21 39 -17 108 7 98 12 129 37 212 26
87 25 94 -5 65 -109 -100 -213 -42 -199 110 5 53 9 70 32 140 32 96 46 128 70
168 12 21 22 42 22 47 0 5 -19 14 -42 20 -24 6 -49 13 -57 16 -8 2 -30 7 -50
10 -20 3 -41 7 -48 9 -14 5 -141 17 -190 19 -17 1 -35 5 -40 9 -4 5 -3 7 2 6
6 -2 42 4 80 14 83 20 109 25 233 42 108 16 175 19 362 19 238 0 298 -7 377
-46 81 -40 82 -128 2 -285 -27 -53 -49 -97 -49 -97 0 -1 37 -2 83 -3 210 -4
385 -48 484 -123 31 -23 58 -57 81 -100 31 -56 36 -76 38 -146 2 -45 -1 -98
-7 -118 -6 -21 -9 -42 -7 -48 6 -16 147 85 203 144 86 92 164 203 187 266 7
17 16 32 20 32 4 0 8 7 8 15 0 9 7 29 15 45 15 30 58 172 70 230 7 37 16 290
10 290 -2 0 -14 -19 -28 -42 -50 -84 -160 -177 -242 -205 l-30 -10 -1 47 c-2
53 -21 95 -61 138 -28 28 -96 79 -100 74 -2 -1 -8 -2 -14 -2 -6 0 -8 13 -3 38
23 120 -1 322 -51 439 -111 261 -210 388 -612 790 -148 147 -285 286 -304 308
-157 180 -254 331 -330 510 -36 88 -61 206 -63 307 0 42 -5 74 -10 71 -22 -14
-78 -158 -102 -265 -1 -5 -2 -9 -4 -10 -8 -11 -15 -113 -15 -218 1 -208 -16
-181 354 -550 174 -174 323 -325 331 -335 8 -11 33 -43 56 -70 104 -128 205
-298 244 -415 28 -83 25 -85 -14 -9 -73 142 -186 275 -454 537 -391 379 -457
446 -562 568 -78 90 -190 246 -190 264 0 5 -5 10 -11 10 -5 0 -8 4 -4 9 3 5 1
12 -5 16 -12 7 -72 134 -94 198 -33 99 -49 199 -49 305 0 39 -3 72 -6 72 -3 0
-18 -19 -32 -43z m1014 -1968 c84 -43 168 -117 252 -220 24 -30 95 -169 95
-188 0 -35 -171 18 -231 72 -59 54 -130 187 -154 293 -2 10 -7 29 -11 42 -8
27 -4 27 49 1z"/>
<path d="M2367 5504 c-1 -1 -34 -4 -72 -8 -39 -4 -84 -9 -100 -11 -17 -3 -43
-7 -60 -10 -16 -2 -46 -7 -65 -10 -29 -5 -151 -32 -225 -50 -60 -15 -165 -49
-161 -52 2 -2 25 -7 52 -9 69 -8 134 -35 156 -65 17 -23 18 -30 8 -50 -7 -13
-18 -27 -24 -32 -10 -6 -104 -37 -131 -43 -55 -11 -292 -82 -385 -115 -297
-107 -541 -257 -729 -449 -48 -50 -146 -168 -179 -216 -36 -55 -72 -116 -72
-123 0 -5 -7 -14 -15 -21 -8 -6 -14 -15 -13 -18 1 -4 -10 -32 -24 -62 -33 -68
-54 -118 -63 -150 -7 -23 -6 -22 25 8 38 39 96 69 127 66 25 -1 53 -21 53 -36
0 -13 -48 -114 -82 -171 -127 -217 -288 -588 -314 -727 -3 -14 -11 -47 -19
-75 -8 -27 -16 -66 -19 -85 -3 -19 -8 -48 -11 -65 -23 -126 -29 -431 -10 -555
21 -150 68 -327 124 -470 22 -55 119 -256 133 -275 5 -5 35 -50 67 -100 66
-101 78 -117 172 -224 90 -103 159 -168 306 -286 7 -5 18 -15 25 -20 30 -25
248 -165 256 -165 5 0 21 -9 35 -20 14 -12 41 -26 59 -32 18 -6 44 -19 58 -28
34 -23 217 -99 231 -96 3 0 12 -4 20 -10 8 -6 32 -17 54 -23 22 -7 49 -16 60
-21 28 -13 259 -76 325 -89 30 -6 69 -13 85 -17 41 -8 115 -9 145 -2 14 4 40
11 58 17 18 5 33 10 35 9 1 0 22 5 47 12 48 13 70 18 110 26 14 3 39 9 55 14
28 9 457 117 493 125 15 3 264 67 315 80 9 3 27 7 40 10 59 13 232 60 322 87
55 18 105 33 110 34 11 3 213 65 465 144 91 28 200 62 243 75 42 13 81 26 85
29 5 3 19 7 33 10 24 5 542 166 546 170 2 1 -111 2 -250 2 -380 0 -622 15
-952 59 -56 7 -182 27 -255 41 -19 3 -44 8 -55 10 -158 26 -546 138 -670 193
-11 5 -38 17 -60 26 -479 207 -801 519 -923 895 -31 95 -37 133 -36 250 0 144
33 240 113 330 17 19 31 38 31 42 0 10 -90 63 -140 81 -159 60 -360 61 -597 3
-13 -4 -32 -8 -44 -11 -11 -2 -30 -7 -41 -11 -18 -5 -20 -3 -14 19 8 32 22 66
38 92 55 86 79 117 127 165 132 130 279 221 529 324 351 146 441 216 426 327
-8 54 -63 137 -132 199 -93 83 -112 100 -117 100 -4 0 -21 13 -59 45 -7 6 -19
15 -28 20 -9 6 -45 30 -81 55 -65 44 -69 55 -24 64 7 2 23 6 37 9 135 35 431
42 565 14 11 -3 39 -8 63 -12 38 -6 41 -5 35 12 -3 10 -10 24 -16 31 -5 6 -7
12 -3 12 3 0 0 15 -8 34 -8 19 -12 37 -9 40 3 2 1 11 -3 18 -15 23 -13 191 2
258 17 77 72 190 117 244 l33 39 34 -69 c52 -105 161 -263 228 -329 33 -33 97
-82 143 -110 46 -27 124 -75 173 -107 49 -32 92 -58 97 -58 4 0 9 -4 11 -8 2
-5 25 -23 52 -41 l48 -33 -7 53 c-5 30 -9 68 -11 84 -1 17 -6 62 -9 100 -4 39
-7 76 -6 83 2 20 2 44 1 93 -1 25 2 80 5 121 l6 76 -58 40 c-58 39 -166 97
-233 125 -41 17 -131 50 -145 53 -5 2 -19 5 -30 9 -69 19 -260 55 -329 60 -69
6 -324 13 -329 9z"/>
</g>
</svg>
