<?xml version="1.0" encoding="utf-8"?>
<!-- Generator: Adobe Illustrator 16.0.0, SVG Export Plug-In . SVG Version: 6.00 Build 0)  -->
<!DOCTYPE svg PUBLIC "-//W3C//DTD SVG 1.1//EN" "http://www.w3.org/Graphics/SVG/1.1/DTD/svg11.dtd">
<svg version="1.1" id="Layer_1" xmlns="http://www.w3.org/2000/svg" xmlns:xlink="http://www.w3.org/1999/xlink" x="0px" y="0px"
	 width="308.131px" height="260px" viewBox="0 0 308.131 260" enable-background="new 0 0 308.131 260" xml:space="preserve">
<g>
	<path d="M174.695,23.82c-2.066,13.42,1.053,30.386,1.053,30.386s-9.824-7.188-20.561-13.275c-6.375-3.594-11.79-11.6-15.147-17.492
		c-2.296-4.074-3.639-7.096-3.639-7.096c-14.909,16.009-5.277,34.842-5.277,34.842c-23.238-5.081-37.765,0.91-37.765,0.91
		c44.001,28.805,20.614,31.152-4.792,43.183c-25.353,12.031-27.218,26.982-27.218,26.982c30.337-9.969,42.41,2.78,42.41,2.78
		c-16.336,15.625-1.767,40.019-1.767,40.019c15.861,30.384,55.162,43.325,90.338,48.645c34.837,5.319,65.66,3.21,65.66,3.21
		l-80.138,24.922L105.872,260c0,0-71.46-7.668-97.719-68.151c-26.221-60.53,19.601-108.168,15-111.283
		c-4.362-2.972-9.92,3.641-10.5,4.36C32.593,27.848,92.646,28.47,95.042,22.43c2.443-6.087-11.843-6.468-11.843-6.468
		C143.927-4.025,174.695,23.82,174.695,23.82"/>
	<path d="M203.589,164.291c-3.786-20.417-31.966-23.916-46.482-14.523c5.031-13.514,19.17-25.783,30.092-29.666
		c-6.229-2.396-13.563-4.456-21.466-6.183c9.293-7.093,32.158-12.461,43.756-11.453c-2.113-0.625-4.409-1.102-6.906-1.439
		l2.205-13.275c-1.29-11.118-11.357-23.867-23.338-31.536C175.51,39.204,181.309,8.244,189.503,0
		c-4.125,44.523,58.754,72.034,70.974,104.863c-6.896-28.037-35.991-46.538-49.599-63.598c-4.317-11.216-0.147-29.762,5.076-36.04
		c-2.396,29.857,29.139,54.204,45.864,71.456c19.751,20.273,24.972,37.863,21.763,52c4.407,1.343,10.397,5.848,9.155,13.133
		c6.513-1.294,13.371-8.532,15.091-13.083c2.542,22.332-11.263,45.384-26.066,51.951c0,0,4.262-10.449-2.204-18.787
		c-6.33-8.195-24.969-8.867-31.299-8.628c0,0,8.104-11.214,5.174-17.108c-3.545-7.332-40.157-5.272-56.694,0.145
		c5.607-0.433,18.742,1.437,23.242,3.496c-2.682,3.74-9.871,19.603-5.169,24.588c3.971,4.266,9.585-2.062,10.299-2.876
		c-0.527,1.533-6.036,17.542-2.249,21.566c3.931,4.217,12.796,1.582,12.796,1.582c-5.899,13.61-27.413,22.477-42.274,21.997
		c5.368-1.486,14.427-10.638,15.915-16.294c-3.98,1.821-14.142,2.635-18.019,1.774C196.117,190.313,206.13,178.285,203.589,164.291
		 M255.923,122.115c0,0-4.308-15.765-20.558-22.332C238.244,111.189,242.267,121.733,255.923,122.115"/>
	<path d="M125.185,80.613c2.445-8.626-14.329-24.01-20.659-26.982c23.68-0.238,35.324,4.554,35.324,4.554
		c-5.895-9.25-7.477-23.245-3.594-34.173c11.935,31.297,57.895,37.718,68.531,63.743l-2.205,13.275
		c-18.164-2.35-44.952,3.068-58.466,18.068c4.697,0.143,16.823,2.78,21.515,4.456c-20.459,3.068-48.642,21.089-57.08,29.762
		c2.497-11.694,6.091-21.518,3.55-28.66c-3.595-10.062-15.576-14.666-39.777-10.399C89.051,98.489,122.646,89.433,125.185,80.613"/>
</g>
</svg>
