<?xml version="1.0" encoding="utf-8"?>
<!-- Generator: Adobe Illustrator 16.0.0, SVG Export Plug-In . SVG Version: 6.00 Build 0)  -->
<!DOCTYPE svg PUBLIC "-//W3C//DTD SVG 1.1//EN" "http://www.w3.org/Graphics/SVG/1.1/DTD/svg11.dtd">
<svg version="1.1" id="Layer_1" xmlns="http://www.w3.org/2000/svg" xmlns:xlink="http://www.w3.org/1999/xlink" x="0px" y="0px"
	 width="32.199px" height="34.583px" viewBox="0 0 32.199 34.583" enable-background="new 0 0 32.199 34.583" xml:space="preserve">
<path d="M18.958,5.551c0.983,0.852,2.173,1.636,3.606,2.18c1.415,0.537,2.92,0.77,4.5,0.73c1.956,2.417,3.135,5.485,3.135,8.831
	c0,3.345-1.18,6.414-3.135,8.832c-1.58-0.041-3.085,0.191-4.5,0.729c-1.433,0.544-2.623,1.328-3.606,2.18
	c-1.394,0.488-4.301,1.336-7.813,1.432C5.813,28.452,2,23.319,2,17.292c0-6.028,3.813-11.16,9.145-13.171
	C14.657,4.215,17.564,5.063,18.958,5.551 M27.948,6.434 M15.42,0.028c-0.192,0.078-0.282,0.299-0.206,0.488
	c0.019,0.045,0.132,0.311,0.338,0.708c-2.286,0.08-4.452,0.629-6.403,1.568c1.868-0.221,4.791-0.058,7.583,0.497
	c0.048,0,0.084-0.001,0.122-0.002c0.147,0.198,0.306,0.399,0.475,0.603C4.593,0.915,1.281,7.344,1.281,7.344
	c1.118-1.148,2.422-1.966,3.802-2.538c0.421-0.114,0.84-0.208,1.258-0.292C2.493,7.458,0,12.085,0,17.292
	c0,5.207,2.493,9.833,6.341,12.777c-0.418-0.084-0.837-0.178-1.258-0.292c-1.38-0.571-2.684-1.39-3.802-2.538
	c0,0,3.312,6.43,16.048,3.454c-0.169,0.204-0.328,0.405-0.475,0.604c-0.038-0.002-0.074-0.002-0.122-0.002
	c-2.792,0.554-5.715,0.717-7.583,0.496c1.951,0.938,4.117,1.487,6.403,1.567c-0.206,0.397-0.319,0.663-0.338,0.708
	c-0.076,0.189,0.014,0.41,0.206,0.488c0.191,0.078,0.41-0.014,0.488-0.205c0.006-0.014,3.013-5.725,6.929-6.801
	c1.163-0.318,2.323-0.642,3.571-0.676c-2.034,2.182-4.742,3.728-7.798,4.28c-0.826,0.812-1.185,1.562-1.31,2.187
	c2.261-0.168,4.392-0.805,6.3-1.814l2.145-1.375c0.267-0.199,0.526-0.41,0.779-0.627c0,0,5.675-3.119,5.675-12.232
	c0-9.112-5.675-12.233-5.675-12.233c-0.253-0.217-0.512-0.427-0.779-0.627L23.6,3.057c-1.908-1.009-4.039-1.646-6.3-1.815
	c0.125,0.626,0.484,1.375,1.31,2.187c3.056,0.553,5.764,2.099,7.798,4.281C25.16,7.675,24,7.352,22.837,7.033
	c-3.916-1.075-6.923-6.786-6.929-6.8C15.83,0.042,15.611-0.051,15.42,0.028"/>
</svg>
